<svg width="25" height="23" viewBox="0 0 25 23" fill="none" xmlns="http://www.w3.org/2000/svg">
<path d="M9.86464 22.5875C8.54689 22.5875 7.47476 21.5153 7.47476 20.1976C7.47476 18.8798 8.54689 17.8081 9.86464 17.8081C11.1824 17.8081 12.2545 18.8798 12.2545 20.1976C12.2545 21.5153 11.1824 22.5875 9.86464 22.5875ZM9.86464 19.3081C9.62875 19.3083 9.40258 19.4021 9.23575 19.5688C9.06892 19.7356 8.97506 19.9617 8.97476 20.1976C8.97476 20.6885 9.37376 21.0875 9.86464 21.0875C10.3555 21.0875 10.7545 20.6885 10.7545 20.1976C10.7542 19.9617 10.6604 19.7356 10.4935 19.5688C10.3267 19.4021 10.1005 19.3083 9.86464 19.3081ZM18.1724 22.5875C16.8546 22.5875 15.7829 21.5153 15.7829 20.1976C15.7829 18.8798 16.8546 17.8081 18.1724 17.8081C19.4901 17.8081 20.5623 18.8798 20.5623 20.1976C20.5623 21.5153 19.4898 22.5875 18.1724 22.5875ZM18.1724 19.3081C17.9366 19.3084 17.7105 19.4022 17.5437 19.5689C17.377 19.7357 17.2832 19.9618 17.2829 20.1976C17.2831 20.4335 17.3769 20.6596 17.5436 20.8265C17.7104 20.9933 17.9365 21.0872 18.1724 21.0875C18.4083 21.0873 18.6346 20.9934 18.8014 20.8266C18.9682 20.6598 19.0621 20.4335 19.0623 20.1976C19.062 19.9617 18.9681 19.7356 18.8013 19.5688C18.6344 19.4021 18.4083 19.3083 18.1724 19.3081ZM19.9221 15.9556H8.14001C7.58629 15.9578 7.04841 15.7708 6.61538 15.4257C6.18236 15.0806 5.88015 14.598 5.75876 14.0577L3.31339 3.37884C3.29718 3.30881 3.26526 3.24339 3.22005 3.18752C3.17483 3.13165 3.1175 3.08679 3.05239 3.05634L1.02401 2.11622C0.802427 2.00923 0.631787 1.81941 0.548913 1.58772C0.466039 1.35604 0.477576 1.10105 0.581034 0.877798C0.684492 0.654542 0.871576 0.48091 1.10192 0.394369C1.33226 0.307827 1.58739 0.315315 1.81226 0.415215L3.84064 1.35534C4.16492 1.50674 4.45053 1.72992 4.67584 2.00798C4.90114 2.28604 5.06026 2.61171 5.14114 2.96034L7.58651 13.64C7.61471 13.7655 7.68496 13.8777 7.78562 13.9579C7.88628 14.0381 8.01131 14.0815 8.14001 14.081H19.9221C20.0505 14.0814 20.1752 14.0381 20.2758 13.9583C20.3763 13.8785 20.4468 13.7669 20.4756 13.6418L22.3769 5.46197C22.397 5.3788 22.3977 5.29212 22.379 5.20863C22.3603 5.12514 22.3226 5.04707 22.2689 4.98047C22.2161 4.91303 22.1486 4.85861 22.0715 4.82142C21.9944 4.78423 21.9097 4.76526 21.8241 4.76596H7.94914C7.7005 4.76596 7.46204 4.66719 7.28623 4.49138C7.11041 4.31556 7.01164 4.07711 7.01164 3.82847C7.01164 3.57982 7.11041 3.34137 7.28623 3.16555C7.46204 2.98974 7.7005 2.89097 7.94914 2.89097H21.8241C22.5738 2.89097 23.2705 3.22734 23.737 3.81422C24.2035 4.40109 24.373 5.15634 24.2035 5.88647L22.3019 14.0667C22.1783 14.6048 21.8755 15.0849 21.443 15.4282C21.0106 15.7714 20.4743 15.9574 19.9221 15.9556Z" fill="black"/>
</svg>
