<svg width="16" height="14" viewBox="0 0 16 14" fill="none" xmlns="http://www.w3.org/2000/svg">
<path d="M15.2361 7.57143L3.84551 13.8996C3.76208 13.946 3.66818 13.9704 3.57269 13.9704C3.48999 13.9689 3.4086 13.9494 3.33416 13.9134C3.25973 13.8773 3.19402 13.8254 3.14159 13.7615C3.08917 13.6975 3.05127 13.6229 3.03052 13.5428C3.00978 13.4627 3.00668 13.3791 3.02144 13.2977L4.26457 7.07981L3.02144 0.861935C3.00258 0.757135 3.01359 0.649142 3.05319 0.550299C3.0928 0.451455 3.15942 0.365748 3.24543 0.302971C3.33144 0.240193 3.43337 0.202879 3.53959 0.195291C3.6458 0.187703 3.75201 0.210147 3.84607 0.26006L15.2367 6.58819C15.3229 6.6381 15.3944 6.70979 15.4442 6.79608C15.4939 6.88237 15.5201 6.98021 15.5201 7.07981C15.5201 7.17941 15.4939 7.27725 15.4442 7.36354C15.3944 7.44982 15.3223 7.52152 15.2361 7.57143ZM1.59382 13.5182L2.85944 7.19006C2.87396 7.11728 2.87396 7.04234 2.85944 6.96956L1.59382 0.641435C1.56278 0.496937 1.47612 0.370459 1.35258 0.289345C1.22903 0.208232 1.07853 0.179 0.933599 0.207971C0.788673 0.236941 0.660971 0.321786 0.578102 0.444161C0.495233 0.566537 0.463856 0.71661 0.490755 0.861935L1.73332 7.07981L0.490193 13.2977C0.474917 13.3792 0.477666 13.463 0.498248 13.5434C0.51883 13.6237 0.556745 13.6985 0.609331 13.7626C0.661918 13.8268 0.727901 13.8786 0.802647 13.9145C0.877394 13.9504 0.959092 13.9695 1.04201 13.9704C1.17199 13.9704 1.29795 13.9253 1.39844 13.8428C1.49894 13.7604 1.56834 13.6457 1.59382 13.5182Z" fill="#D0343C"/>
</svg>
