<svg width="15" height="14" viewBox="0 0 15 14" fill="none" xmlns="http://www.w3.org/2000/svg">
<path d="M4.70025 6.1998C4.69691 6.73994 4.86188 7.26771 5.17225 7.7098C5.78066 8.52199 6.58037 9.17124 7.50025 9.5998C8.42013 9.17124 9.21984 8.52199 9.82825 7.7098C10.1386 7.26771 10.3036 6.73994 10.3002 6.1998C10.3002 5.82849 10.1527 5.4724 9.89019 5.20985C9.62765 4.9473 9.27154 4.7998 8.90024 4.7998C8.52894 4.7998 8.17285 4.9473 7.9103 5.20985C7.64775 5.4724 7.50025 5.82849 7.50025 6.1998C7.50025 5.82849 7.35275 5.4724 7.09019 5.20985C6.82764 4.9473 6.47155 4.7998 6.10025 4.7998C5.72895 4.7998 5.37284 4.9473 5.11029 5.20985C4.84774 5.4724 4.70025 5.82849 4.70025 6.1998Z" fill="#D0343C"/>
<path d="M3.39237 4.59858C3.61328 4.21594 3.48218 3.72667 3.09955 3.50575C2.71691 3.28484 2.22764 3.41594 2.00673 3.79858C1.78581 4.18121 1.91691 4.67048 2.29955 4.8914C2.68218 5.11231 3.17145 4.98121 3.39237 4.59858Z" fill="#D0343C"/>
<path d="M5.1277 2.91783C5.51209 2.69692 5.64461 2.20623 5.4237 1.82183C5.20278 1.43744 4.71209 1.30492 4.3277 1.52583C3.94331 1.74675 3.81078 2.23744 4.0317 2.62183C4.25261 3.00623 4.74331 3.13875 5.1277 2.91783Z" fill="#D0343C"/>
<path d="M7.4996 0.600098H6.6996V2.2001H7.4996C8.44896 2.2001 9.377 2.48161 10.1663 3.00904C10.9557 3.53647 11.571 4.28613 11.9343 5.16322C12.2976 6.0403 12.3926 7.00542 12.2074 7.93653C12.0222 8.86764 11.565 9.72292 10.8937 10.3942C10.2224 11.0655 9.36716 11.5227 8.43604 11.7079C7.50493 11.8931 6.53981 11.798 5.66272 11.4347C4.78564 11.0714 4.03598 10.4562 3.50855 9.66683C2.98112 8.87748 2.6996 7.94945 2.6996 7.0001V6.2001H1.09961V7.0001C1.09961 8.2659 1.47496 9.50327 2.1782 10.5558C2.88144 11.6082 3.88098 12.4285 5.05043 12.9129C6.21988 13.3973 7.5067 13.5241 8.74818 13.2771C9.98967 13.0302 11.1301 12.4206 12.0251 11.5256C12.9202 10.6305 13.5297 9.49015 13.7767 8.24867C14.0236 7.0072 13.8969 5.72037 13.4125 4.55092C12.9281 3.38148 12.1078 2.38193 11.0553 1.67869C10.0028 0.975452 8.76541 0.600098 7.4996 0.600098Z" fill="#D0343C"/>
</svg>
