<svg width="35" height="42" viewBox="0 0 35 42" fill="none" xmlns="http://www.w3.org/2000/svg">
<path fill-rule="evenodd" clip-rule="evenodd" d="M17.5293 0.199707C10.3935 0.199707 4.5918 6.05321 4.5918 13.2733C4.5918 15.719 5.66896 18.753 7.2368 21.7795C10.6887 28.4437 16.4387 35.1559 16.4387 35.1559C16.5737 35.313 16.741 35.4392 16.9292 35.5256C17.1175 35.6121 17.3222 35.6569 17.5293 35.6569C17.7364 35.6569 17.9411 35.6121 18.1294 35.5256C18.3176 35.4392 18.4849 35.313 18.6199 35.1559C18.6199 35.1559 24.3699 28.4437 27.8218 21.7795C29.3896 18.753 30.4668 15.719 30.4668 13.2733C30.4668 6.05321 24.665 0.199707 17.5293 0.199707ZM17.5293 7.86637C16.156 7.90341 14.8514 8.47498 13.8931 9.45941C12.9349 10.4438 12.3987 11.7634 12.3987 13.1372C12.3987 14.511 12.9349 15.8306 13.8931 16.815C14.8514 17.7994 16.156 18.371 17.5293 18.408C18.9026 18.371 20.2072 17.7994 21.1655 16.815C22.1237 15.8306 22.6599 14.511 22.6599 13.1372C22.6599 11.7634 22.1237 10.4438 21.1655 9.45941C20.2072 8.47498 18.9026 7.90341 17.5293 7.86637Z" fill="#D0343C"/>
<path fill-rule="evenodd" clip-rule="evenodd" d="M26.6987 31.1096C28.257 31.5772 29.5411 32.1561 30.4285 32.8346C31.0035 33.2716 31.4252 33.699 31.4252 34.2203C31.4252 34.527 31.2508 34.8049 31.0055 35.0828C30.5991 35.5409 29.9954 35.953 29.2479 36.3363C26.6067 37.6876 22.3364 38.5328 17.5294 38.5328C12.7224 38.5328 8.45205 37.6876 5.81088 36.3363C5.06338 35.953 4.45963 35.5409 4.05329 35.0828C3.80796 34.8049 3.63354 34.527 3.63354 34.2203C3.63354 33.699 4.05521 33.2716 4.63021 32.8346C5.51763 32.1561 6.8018 31.5772 8.36005 31.1096C8.72528 30.9998 9.03194 30.7494 9.21256 30.4135C9.39318 30.0776 9.43297 29.6837 9.32317 29.3184C9.21337 28.9532 8.96298 28.6465 8.62708 28.4659C8.29118 28.2853 7.89728 28.2455 7.53204 28.3553C5.15921 29.0702 3.31538 30.0497 2.20755 31.1326C1.23388 32.0813 0.758545 33.1432 0.758545 34.2203C0.758545 35.5658 1.51946 36.9075 3.06621 38.0268C5.78021 39.9895 11.2312 41.4078 17.5294 41.4078C23.8275 41.4078 29.2785 39.9895 31.9925 38.0268C33.5393 36.9075 34.3002 35.5658 34.3002 34.2203C34.3002 33.1432 33.8249 32.0813 32.8512 31.1326C31.7434 30.0497 29.8995 29.0702 27.5267 28.3553C27.3459 28.301 27.1561 28.2827 26.9682 28.3017C26.7803 28.3207 26.598 28.3765 26.4317 28.4659C26.2654 28.5554 26.1183 28.6767 25.9988 28.823C25.8794 28.9692 25.79 29.1376 25.7356 29.3184C25.6812 29.4993 25.663 29.6891 25.682 29.877C25.701 30.0648 25.7568 30.2472 25.8462 30.4135C25.9356 30.5798 26.0569 30.7269 26.2032 30.8463C26.3495 30.9657 26.5179 31.0552 26.6987 31.1096Z" fill="#D0343C"/>
</svg>
