<svg width="47" height="47" viewBox="0 0 47 47" fill="none" xmlns="http://www.w3.org/2000/svg">
<g clip-path="url(#clip0_177_53)">
<path d="M46.1143 9.55794L32.1635 23.4189L46.1143 37.28C46.3665 36.7528 46.5195 36.1701 46.5195 35.5479V11.29C46.5195 10.6677 46.3665 10.0851 46.1143 9.55794ZM42.4766 7.24707H4.5625C3.94015 7.24707 3.35752 7.40007 2.8304 7.65227L20.6611 25.3931C22.2376 26.9697 24.8014 26.9697 26.378 25.3931L44.2087 7.65227C43.6815 7.40007 43.0989 7.24707 42.4766 7.24707ZM0.924727 9.55794C0.672535 10.0851 0.519531 10.6677 0.519531 11.29V35.5479C0.519531 36.1702 0.672535 36.7529 0.924727 37.28L14.8756 23.4189L0.924727 9.55794Z" fill="#D0343C"/>
<path d="M30.2575 25.3247L28.2834 27.2988C25.6564 29.9258 21.3819 29.9258 18.755 27.2988L16.7809 25.3247L2.83008 39.1857C3.35719 39.4379 3.93983 39.5909 4.56218 39.5909H42.4762C43.0986 39.5909 43.6812 39.4379 44.2083 39.1857L30.2575 25.3247Z" fill="#D0343C"/>
</g>
<defs>
<clipPath id="clip0_177_53">
<rect width="46" height="46" fill="white" transform="translate(0.519531 0.418945)"/>
</clipPath>
</defs>
</svg>
