<svg width="11" height="16" viewBox="0 0 11 16" fill="none" xmlns="http://www.w3.org/2000/svg">
<path d="M9.46094 4.19041V4.08691C9.46094 3.04262 9.04609 2.04111 8.30767 1.30268C7.56925 0.564257 6.56773 0.149414 5.52344 0.149414C4.47915 0.149414 3.47763 0.564257 2.7392 1.30268C2.00078 2.04111 1.58594 3.04262 1.58594 4.08691V4.19041C1.25782 4.30598 0.973532 4.52029 0.772099 4.80391C0.570667 5.08752 0.461971 5.42654 0.460938 5.77441V10.2744C0.461384 10.7218 0.639317 11.1508 0.955688 11.4672C1.27206 11.7835 1.70102 11.9615 2.14844 11.9619H8.89844C9.34585 11.9615 9.77482 11.7835 10.0912 11.4672C10.4076 11.1508 10.5855 10.7218 10.5859 10.2744V5.77441C10.5849 5.42654 10.4762 5.08752 10.2748 4.80391C10.0733 4.52029 9.78905 4.30598 9.46094 4.19041ZM5.52344 1.27441C6.26908 1.27531 6.98394 1.57191 7.51119 2.09916C8.03844 2.62642 8.33504 3.34127 8.33594 4.08691H2.71094C2.71183 3.34127 3.00843 2.62642 3.53569 2.09916C4.06294 1.57191 4.77779 1.27531 5.52344 1.27441ZM9.46094 10.2744C9.46079 10.4236 9.40148 10.5665 9.29602 10.672C9.19056 10.7775 9.04758 10.8368 8.89844 10.8369H2.14844C1.9993 10.8368 1.85631 10.7775 1.75085 10.672C1.6454 10.5665 1.58609 10.4236 1.58594 10.2744V5.77441C1.58609 5.62528 1.6454 5.48229 1.75085 5.37683C1.85631 5.27137 1.9993 5.21206 2.14844 5.21191H8.89844C9.04758 5.21206 9.19056 5.27137 9.29602 5.37683C9.40148 5.48229 9.46079 5.62528 9.46094 5.77441V10.2744ZM6.64844 7.46191C6.64806 7.65863 6.59587 7.85178 6.49712 8.02192C6.39838 8.19206 6.25656 8.33319 6.08594 8.4311V9.14941C6.08594 9.2986 6.02667 9.44167 5.92119 9.54716C5.8157 9.65265 5.67262 9.71191 5.52344 9.71191C5.37425 9.71191 5.23118 9.65265 5.12569 9.54716C5.0202 9.44167 4.96094 9.2986 4.96094 9.14941V8.4311C4.79046 8.33208 4.64904 8.18994 4.5509 8.01895C4.45275 7.84797 4.40134 7.65416 4.40182 7.45702C4.4023 7.25987 4.45466 7.06631 4.55363 6.89581C4.65261 6.72531 4.79472 6.58385 4.96568 6.48566C5.13664 6.38748 5.33043 6.33601 5.52758 6.33644C5.72473 6.33687 5.91829 6.38918 6.08882 6.48811C6.25935 6.58705 6.40084 6.72912 6.49907 6.90005C6.5973 7.07099 6.64882 7.26476 6.64844 7.46191ZM10.1101 14.3216L9.42156 14.4836L9.89406 15.1654C10.1483 15.5147 9.53069 15.9574 9.27981 15.5974L8.84106 14.9224L8.39556 15.6047C8.15931 15.9534 7.50006 15.4944 7.81506 15.1592L8.26056 14.5241L7.55856 14.3216C7.12262 14.2035 7.37406 13.4632 7.80156 13.6264L8.51031 13.8559L8.47656 13.1679C8.47038 12.737 9.20781 12.7337 9.19881 13.1679L9.17181 13.8694L9.88731 13.6264C10.2872 13.4677 10.5505 14.2305 10.1101 14.3216ZM6.79581 14.3216L6.10731 14.4836L6.57981 15.1654C6.83406 15.5147 6.21644 15.9574 5.96556 15.5974L5.52681 14.9224L5.08131 15.6047C4.84506 15.9534 4.18581 15.4944 4.50081 15.1592L4.94631 14.5241L4.24431 14.3216C3.80837 14.2035 4.05981 13.4632 4.48731 13.6264L5.19606 13.8559L5.16231 13.1679C5.15613 12.737 5.89356 12.7337 5.88456 13.1679L5.85756 13.8694L6.57306 13.6264C6.973 13.4677 7.23625 14.2305 6.79581 14.3216ZM3.48156 14.3216L2.79306 14.4836L3.26556 15.1654C3.51981 15.5147 2.90219 15.9574 2.65131 15.5974L2.21256 14.9224L1.76706 15.6047C1.53081 15.9534 0.871 15.4944 1.18656 15.1592L1.63206 14.5241L0.930063 14.3216C0.494125 14.2035 0.745562 13.4632 1.17306 13.6264L1.88181 13.8559L1.84806 13.1679C1.84187 12.737 2.57931 12.7337 2.57031 13.1679L2.54331 13.8694L3.25881 13.6264C3.65875 13.4677 3.922 14.2305 3.48156 14.3216Z" fill="#4C4C4C"/>
</svg>
