<svg width="19" height="19" viewBox="0 0 19 19" fill="none" xmlns="http://www.w3.org/2000/svg">
<g clip-path="url(#clip0_48_160)">
<path d="M13.4722 0.695312H5.57455C4.90208 0.695312 4.35498 1.24241 4.35498 1.91488V17.4757C4.35498 18.1482 4.90208 18.6953 5.57455 18.6953H13.4722C14.1447 18.6953 14.6918 18.1482 14.6918 17.4757V1.91488C14.6918 1.24241 14.1447 0.695312 13.4722 0.695312ZM14.1293 17.4757C14.1293 17.838 13.8345 18.1328 13.4722 18.1328H5.57455C5.21223 18.1328 4.91748 17.838 4.91748 17.4757V1.91488C4.91748 1.55256 5.21223 1.25781 5.57455 1.25781H13.4722C13.8346 1.25781 14.1293 1.55256 14.1293 1.91488V17.4757H14.1293ZM10.7234 2.20815C10.7234 2.28275 10.6938 2.35428 10.641 2.40703C10.5883 2.45977 10.5168 2.4894 10.4422 2.4894H8.60459C8.53 2.4894 8.45846 2.45977 8.40572 2.40703C8.35297 2.35428 8.32334 2.28275 8.32334 2.20815C8.32334 2.13356 8.35297 2.06202 8.40572 2.00928C8.45846 1.95654 8.53 1.9269 8.60459 1.9269H10.4422C10.5168 1.9269 10.5883 1.95654 10.641 2.00928C10.6938 2.06202 10.7234 2.13356 10.7234 2.20815ZM9.52336 15.8946C9.00182 15.8946 8.57752 16.3189 8.57752 16.8404C8.57752 17.362 9.00182 17.7863 9.52336 17.7863C10.0449 17.7863 10.4692 17.362 10.4692 16.8404C10.4692 16.3189 10.0449 15.8946 9.52336 15.8946ZM9.52336 17.2238C9.312 17.2238 9.14002 17.0518 9.14002 16.8404C9.14002 16.629 9.312 16.4571 9.52336 16.4571C9.73472 16.4571 9.9067 16.6291 9.9067 16.8404C9.9067 17.0518 9.73475 17.2238 9.52336 17.2238Z" fill="#4D4D4D"/>
</g>
<defs>
<clipPath id="clip0_48_160">
<rect width="18" height="18" fill="white" transform="translate(0.523438 0.695312)"/>
</clipPath>
</defs>
</svg>
