<svg width="47" height="47" viewBox="0 0 47 47" fill="none" xmlns="http://www.w3.org/2000/svg">
<g clip-path="url(#clip0_177_71)">
<path d="M23.3988 11.4008C31.1497 11.4769 36.0053 10.9946 36.6611 19.5857H46.1129C46.1129 6.27682 34.5057 4.48291 23.1527 4.48291C11.7988 4.48291 0.192521 6.27682 0.192521 19.5857H9.57093C10.2965 10.8309 15.7123 11.3257 23.3988 11.4008ZM4.87993 23.8642C7.18204 23.8642 9.09762 24.002 9.52351 21.7375C9.58077 21.4297 9.61387 21.0808 9.61387 20.6773H0.145996C0.145996 24.0459 2.26558 23.8642 4.87993 23.8642ZM36.722 20.6773H36.6334C36.6334 21.0835 36.6683 21.4333 36.7336 21.7375C37.1827 23.8258 39.0956 23.696 41.3897 23.696C44.0166 23.696 46.146 23.8687 46.146 20.6773H36.722Z" fill="#D0343C"/>
<path d="M32.1043 18.3833V17.0448C32.1043 16.4463 31.4145 16.4087 30.5627 16.4087H29.1714C28.3206 16.4087 27.6307 16.4463 27.6307 17.0448V19.0928H17.7889V17.0448C17.7889 16.4463 17.099 16.4087 16.2482 16.4087H14.856C14.0051 16.4087 13.3153 16.4463 13.3153 17.0448V19.5518C11.0731 21.8817 3.73647 31.7996 3.46985 33.0003L3.47343 41.0125C3.47343 41.7524 4.07557 42.3545 4.8155 42.3545H40.6041C41.344 42.3545 41.9462 41.7524 41.9462 41.0125V32.96C41.6822 31.7942 34.3474 21.8808 32.1043 19.5509V18.3833ZM17.3039 34.0784C17.1298 34.083 16.9565 34.0526 16.7943 33.9891C16.6321 33.9257 16.4843 33.8303 16.3595 33.7088C16.2347 33.5872 16.1356 33.4419 16.0679 33.2815C16.0002 33.121 15.9653 32.9486 15.9653 32.7744C15.9653 32.6002 16.0002 32.4278 16.0679 32.2673C16.1356 32.1068 16.2347 31.9615 16.3595 31.84C16.4843 31.7184 16.6321 31.6231 16.7943 31.5596C16.9565 31.4961 17.1298 31.4658 17.3039 31.4703C17.6439 31.4792 17.9669 31.6205 18.2042 31.8641C18.4415 32.1077 18.5743 32.4343 18.5743 32.7744C18.5743 33.1144 18.4415 33.441 18.2042 33.6846C17.9669 33.9282 17.6439 34.0695 17.3039 34.0784ZM17.3039 29.6048C17.1298 29.6094 16.9565 29.5791 16.7943 29.5156C16.6321 29.4521 16.4843 29.3568 16.3595 29.2352C16.2347 29.1137 16.1356 28.9684 16.0679 28.8079C16.0002 28.6474 15.9653 28.475 15.9653 28.3008C15.9653 28.1266 16.0002 27.9542 16.0679 27.7937C16.1356 27.6332 16.2347 27.4879 16.3595 27.3664C16.4843 27.2448 16.6321 27.1495 16.7943 27.086C16.9565 27.0225 17.1298 26.9922 17.3039 26.9968C17.6439 27.0057 17.9669 27.147 18.2042 27.3905C18.4415 27.6341 18.5743 27.9607 18.5743 28.3008C18.5743 28.6409 18.4415 28.9675 18.2042 29.2111C17.9669 29.4546 17.6439 29.5959 17.3039 29.6048ZM17.3039 25.1322C17.1298 25.1367 16.9565 25.1064 16.7943 25.0429C16.6321 24.9794 16.4843 24.8841 16.3595 24.7625C16.2347 24.641 16.1356 24.4957 16.0679 24.3352C16.0002 24.1747 15.9653 24.0023 15.9653 23.8281C15.9653 23.6539 16.0002 23.4815 16.0679 23.321C16.1356 23.1605 16.2347 23.0152 16.3595 22.8937C16.4843 22.7722 16.6321 22.6768 16.7943 22.6133C16.9565 22.5499 17.1298 22.5195 17.3039 22.5241C17.6439 22.533 17.9669 22.6743 18.2042 22.9179C18.4415 23.1614 18.5743 23.4881 18.5743 23.8281C18.5743 24.1682 18.4415 24.4948 18.2042 24.7384C17.9669 24.982 17.6439 25.1233 17.3039 25.1322ZM22.6722 34.0784C22.4981 34.083 22.3248 34.0526 22.1626 33.9891C22.0004 33.9257 21.8526 33.8303 21.7278 33.7088C21.603 33.5872 21.5039 33.4419 21.4362 33.2815C21.3685 33.121 21.3336 32.9486 21.3336 32.7744C21.3336 32.6002 21.3685 32.4278 21.4362 32.2673C21.5039 32.1068 21.603 31.9615 21.7278 31.84C21.8526 31.7184 22.0004 31.6231 22.1626 31.5596C22.3248 31.4961 22.4981 31.4658 22.6722 31.4703C23.0122 31.4792 23.3352 31.6205 23.5725 31.8641C23.8098 32.1077 23.9426 32.4343 23.9426 32.7744C23.9426 33.1144 23.8098 33.441 23.5725 33.6846C23.3352 33.9282 23.0122 34.0695 22.6722 34.0784ZM22.6722 29.6048C22.4981 29.6094 22.3248 29.5791 22.1626 29.5156C22.0004 29.4521 21.8526 29.3568 21.7278 29.2352C21.603 29.1137 21.5039 28.9684 21.4362 28.8079C21.3685 28.6474 21.3336 28.475 21.3336 28.3008C21.3336 28.1266 21.3685 27.9542 21.4362 27.7937C21.5039 27.6332 21.603 27.4879 21.7278 27.3664C21.8526 27.2448 22.0004 27.1495 22.1626 27.086C22.3248 27.0225 22.4981 26.9922 22.6722 26.9968C23.0122 27.0057 23.3352 27.147 23.5725 27.3905C23.8098 27.6341 23.9426 27.9607 23.9426 28.3008C23.9426 28.6409 23.8098 28.9675 23.5725 29.2111C23.3352 29.4546 23.0122 29.5959 22.6722 29.6048ZM22.6722 25.1322C22.4981 25.1367 22.3248 25.1064 22.1626 25.0429C22.0004 24.9794 21.8526 24.8841 21.7278 24.7625C21.603 24.641 21.5039 24.4957 21.4362 24.3352C21.3685 24.1747 21.3336 24.0023 21.3336 23.8281C21.3336 23.6539 21.3685 23.4815 21.4362 23.321C21.5039 23.1605 21.603 23.0152 21.7278 22.8937C21.8526 22.7722 22.0004 22.6768 22.1626 22.6133C22.3248 22.5499 22.4981 22.5195 22.6722 22.5241C23.0122 22.533 23.3352 22.6743 23.5725 22.9179C23.8098 23.1614 23.9426 23.4881 23.9426 23.8281C23.9426 24.1682 23.8098 24.4948 23.5725 24.7384C23.3352 24.982 23.0122 25.1233 22.6722 25.1322ZM28.0405 34.0784C27.6945 34.0784 27.3627 33.941 27.1181 33.6963C26.8735 33.4517 26.736 33.1199 26.736 32.7739C26.736 32.428 26.8735 32.0962 27.1181 31.8515C27.3627 31.6069 27.6945 31.4694 28.0405 31.4694C28.3865 31.4694 28.7183 31.6069 28.9629 31.8515C29.2076 32.0962 29.345 32.428 29.345 32.7739C29.345 33.1199 29.2076 33.4517 28.9629 33.6963C28.7183 33.941 28.3865 34.0784 28.0405 34.0784ZM28.0405 29.6048C27.6945 29.6048 27.3627 29.4674 27.1181 29.2228C26.8735 28.9781 26.736 28.6463 26.736 28.3004C26.736 27.9544 26.8735 27.6226 27.1181 27.3779C27.3627 27.1333 27.6945 26.9959 28.0405 26.9959C28.3865 26.9959 28.7183 27.1333 28.9629 27.3779C29.2076 27.6226 29.345 27.9544 29.345 28.3004C29.345 28.6463 29.2076 28.9781 28.9629 29.2228C28.7183 29.4674 28.3865 29.6048 28.0405 29.6048ZM28.0405 25.1322C27.6945 25.1322 27.3627 24.9947 27.1181 24.7501C26.8735 24.5054 26.736 24.1736 26.736 23.8277C26.736 23.4817 26.8735 23.1499 27.1181 22.9053C27.3627 22.6606 27.6945 22.5232 28.0405 22.5232C28.3865 22.5232 28.7183 22.6606 28.9629 22.9053C29.2076 23.1499 29.345 23.4817 29.345 23.8277C29.345 24.1736 29.2076 24.5054 28.9629 24.7501C28.7183 24.9947 28.3865 25.1322 28.0405 25.1322Z" fill="#D0343C"/>
</g>
<defs>
<clipPath id="clip0_177_71">
<rect width="46" height="46" fill="white" transform="translate(0.145996 0.418945)"/>
</clipPath>
</defs>
</svg>
