<svg width="25" height="25" viewBox="0 0 25 25" fill="none" xmlns="http://www.w3.org/2000/svg">
<path d="M20.8593 15.9727C19.5523 14.6657 17.9966 13.6982 16.2993 13.1125C18.1172 11.8604 19.3115 9.76495 19.3115 7.39551C19.3115 3.57018 16.1994 0.458008 12.374 0.458008C8.5487 0.458008 5.43652 3.57018 5.43652 7.39551C5.43652 9.76495 6.63085 11.8604 8.4488 13.1125C6.75146 13.6982 5.19577 14.6657 3.88876 15.9727C1.62226 18.2392 0.374023 21.2527 0.374023 24.458H2.24902C2.24902 18.8751 6.79107 14.333 12.374 14.333C17.957 14.333 22.499 18.8751 22.499 24.458H24.374C24.374 21.2527 23.1258 18.2392 20.8593 15.9727ZM12.374 12.458C9.58257 12.458 7.31152 10.187 7.31152 7.39551C7.31152 4.60401 9.58257 2.33301 12.374 2.33301C15.1655 2.33301 17.4365 4.60401 17.4365 7.39551C17.4365 10.187 15.1655 12.458 12.374 12.458Z" fill="black"/>
</svg>
