<svg width="36" height="36" viewBox="0 0 36 36" fill="none" xmlns="http://www.w3.org/2000/svg">
<path d="M28.0471 17.9999L35.6251 2.09773C35.7561 1.80235 35.7852 1.47315 35.7077 1.16014C35.6303 0.847138 35.4506 0.567434 35.1961 0.363523C34.9415 0.159612 34.6259 0.0426392 34.2972 0.0303741C33.9685 0.0181091 33.6448 0.111223 33.3751 0.295569L24.3931 6.78745L26.6251 2.09626C26.7561 1.80088 26.7852 1.47168 26.7077 1.15867C26.6303 0.84567 26.4506 0.565966 26.1961 0.362055C25.9415 0.158144 25.6259 0.0411705 25.2972 0.0289055C24.9685 0.0166404 24.6448 0.109754 24.3751 0.2941L1.51507 16.8175C1.32862 16.9559 1.17742 17.1346 1.07331 17.3397C0.969213 17.5449 0.915039 17.7708 0.915039 17.9999C0.915039 18.2289 0.969213 18.4549 1.07331 18.66C1.17742 18.8652 1.32862 19.0439 1.51507 19.1822L24.3751 35.7057C24.6452 35.8879 24.9685 35.9793 25.2963 35.966C25.6241 35.9527 25.9386 35.8355 26.1924 35.632C26.4463 35.4285 26.6257 35.1497 26.7038 34.8377C26.7818 34.5257 26.7542 34.1973 26.6251 33.902L24.3931 29.2108L33.3751 35.7027C33.6449 35.8858 33.9684 35.9779 34.2964 35.9651C34.6245 35.9523 34.9394 35.8353 35.1935 35.6318C35.4477 35.4282 35.6272 35.1492 35.7051 34.8369C35.783 34.5245 35.7549 34.1959 35.6251 33.9006L28.0471 17.9999ZM21.4171 29.9173L4.93357 17.9999L21.4186 6.08244L19.3486 10.4344L10.5166 16.8175C10.3301 16.9559 10.1789 17.1346 10.0748 17.3397C9.97071 17.5449 9.91654 17.7708 9.91654 17.9999C9.91654 18.2289 9.97071 18.4549 10.0748 18.66C10.1789 18.8652 10.3301 19.0439 10.5166 19.1822L19.3501 25.5654L21.4171 29.9173ZM21.4441 23.4269L13.9336 17.9999L30.4111 6.09126L25.0306 17.3786C24.9378 17.5731 24.8898 17.7852 24.8898 17.9999C24.8898 18.2146 24.9378 18.4266 25.0306 18.6212L30.4111 29.9085L21.4441 23.4269Z" fill="#D0343C"/>
</svg>
